# This file uses centimeters as units for non-parametric coordinates.

mtllib Wall Sheet 3.mtl
g default
v -149.117004 -144.000000 -6.000000
v -149.117004 -144.000000 6.000000
v -149.117004 34.000000 -6.000000
v -149.117004 34.000000 6.000000
v -128.117004 -123.000008 6.000000
v -128.117004 9.000000 6.000000
v -125.116997 -119.999992 0.000000
v -125.116997 -119.999992 3.000000
v -125.116997 6.000000 0.000000
v -125.116997 6.000000 3.000000
v -105.117004 -119.999992 0.000000
v -105.117004 -119.999992 3.000000
v -105.117004 6.000000 0.000000
v -105.117004 6.000000 3.000000
v -102.116997 -123.000008 6.000000
v -102.116997 9.000000 6.000000
v -82.116997 -123.000008 6.000000
v -82.116997 9.000000 6.000000
v -79.117004 -119.999992 0.000000
v -79.117004 -119.999992 3.000000
v -79.117004 6.000000 0.000000
v -79.117004 6.000000 3.000000
v -59.117001 -119.999992 0.000000
v -59.117001 -119.999992 3.000000
v -59.117001 6.000000 0.000000
v -59.117001 6.000000 3.000000
v -56.117001 -123.000008 6.000000
v -56.117001 9.000000 6.000000
v -36.000000 -144.000000 -6.000000
v -36.000000 -144.000000 6.000000
v -36.000000 -90.000000 -6.000000
v -36.000000 -90.000000 6.000000
v -36.000000 -48.000000 -6.000000
v -36.000000 -48.000000 6.000000
v -36.000000 6.000000 -6.000000
v -36.000000 6.000000 6.000000
v 36.000000 -144.000000 -6.000000
v 36.000000 -144.000000 6.000000
v 36.000000 -90.000000 -6.000000
v 36.000000 -90.000000 6.000000
v 36.000000 -48.000000 -6.000000
v 36.000000 -48.000000 6.000000
v 36.000000 6.000000 -6.000000
v 36.000000 6.000000 6.000000
v 56.117001 -123.000008 6.000000
v 56.117001 9.000000 6.000000
v 59.117001 -119.999992 0.000000
v 59.117001 -119.999992 3.000000
v 59.117001 6.000000 0.000000
v 59.117001 6.000000 3.000000
v 79.117004 -119.999992 0.000000
v 79.117004 -119.999992 3.000000
v 79.117004 6.000000 0.000000
v 79.117004 6.000000 3.000000
v 82.116997 -123.000008 6.000000
v 82.116997 9.000000 6.000000
v 102.116997 -123.000008 6.000000
v 102.116997 9.000000 6.000000
v 105.117004 -119.999992 0.000000
v 105.117004 -119.999992 3.000000
v 105.117004 6.000000 0.000000
v 105.117004 6.000000 3.000000
v 125.116997 -119.999992 0.000000
v 125.116997 -119.999992 3.000000
v 125.116997 6.000000 0.000000
v 125.116997 6.000000 3.000000
v 128.117004 -123.000008 6.000000
v 128.117004 9.000000 6.000000
v 149.117004 -144.000000 -6.000000
v 149.117004 -144.000000 6.000000
v 149.117004 34.000000 -6.000000
v 149.117004 34.000000 6.000000
vt 0.930695 0.287990
vt 0.924041 0.287990
vt 0.930695 0.008543
vt 0.924041 0.008543
vt 0.937348 0.001890
vt 0.937348 0.294643
vt 0.950184 0.008543
vt 0.956838 0.008543
vt 0.950184 0.287990
vt 0.956838 0.287990
vt 0.943531 0.001890
vt 0.943531 0.294643
vt 0.911205 0.008543
vt 0.917859 0.008543
vt 0.911205 0.287990
vt 0.917859 0.287990
vt 0.904552 0.001890
vt 0.904552 0.294643
vt 0.969674 0.287990
vt 0.963020 0.287990
vt 0.969674 0.008543
vt 0.963020 0.008543
vt 0.976327 0.001890
vt 0.976327 0.294643
vt 0.991355 0.584735
vt 0.984701 0.584735
vt 0.991355 0.305288
vt 0.984701 0.305288
vt 0.998008 0.298635
vt 0.998008 0.591388
vt 0.952470 0.584735
vt 0.945816 0.584735
vt 0.952470 0.305288
vt 0.945816 0.305288
vt 0.959123 0.298635
vt 0.959123 0.591388
vt 0.989164 0.008543
vt 0.995817 0.008543
vt 0.989164 0.287990
vt 0.995817 0.287990
vt 0.982510 0.001890
vt 0.982510 0.294643
vt 0.838288 0.396664
vt 0.838288 0.001890
vt 0.864902 0.396664
vt 0.864902 0.001890
vt 0.971912 0.305288
vt 0.978566 0.305288
vt 0.971912 0.584735
vt 0.978566 0.584735
vt 0.965259 0.298635
vt 0.965259 0.591388
vt 0.547353 0.787076
vt 0.547353 0.667313
vt 0.573967 0.787076
vt 0.573967 0.667313
vt 0.541218 0.667313
vt 0.541218 0.787076
vt 0.514604 0.667313
vt 0.514604 0.787076
vt 0.508468 0.667313
vt 0.508468 0.787076
vt 0.481854 0.667313
vt 0.481854 0.787076
vt 0.449105 0.787076
vt 0.449105 0.667313
vt 0.475719 0.787076
vt 0.475719 0.667313
vt 0.871420 0.396664
vt 0.871420 0.001890
vt 0.898034 0.396664
vt 0.898034 0.001890
vt 0.436316 0.718324
vt 0.429663 0.718324
vt 0.436316 0.673967
vt 0.429663 0.673967
vt 0.442970 0.724977
vt 0.442970 0.667314
vt 0.397431 0.718324
vt 0.390778 0.718324
vt 0.397431 0.673967
vt 0.390778 0.673967
vt 0.404085 0.724977
vt 0.404085 0.667314
vt 0.416874 0.673967
vt 0.423527 0.673967
vt 0.416874 0.718324
vt 0.423527 0.718324
vt 0.410220 0.667314
vt 0.410220 0.724977
vt 0.377989 0.673967
vt 0.384643 0.673967
vt 0.377989 0.718324
vt 0.384643 0.718324
vt 0.371336 0.667314
vt 0.371336 0.724977
vt 0.358547 0.718324
vt 0.351893 0.718324
vt 0.358547 0.673967
vt 0.351893 0.673967
vt 0.365200 0.724977
vt 0.365200 0.667314
vt 0.319662 0.718324
vt 0.313009 0.718324
vt 0.319662 0.673967
vt 0.313009 0.673967
vt 0.326316 0.724977
vt 0.326316 0.667314
vt 0.339104 0.673967
vt 0.345758 0.673967
vt 0.339104 0.718324
vt 0.345758 0.718324
vt 0.332451 0.667314
vt 0.332451 0.724977
vt 0.430285 0.663322
vt 0.403671 0.663322
vt 0.430285 0.001890
vt 0.403671 0.001890
vt 0.300220 0.673967
vt 0.306873 0.673967
vt 0.300220 0.718324
vt 0.306873 0.718324
vt 0.293566 0.667314
vt 0.293566 0.724977
vt 0.645601 0.826997
vt 0.645601 0.667313
vt 0.672215 0.826997
vt 0.672215 0.667313
vt 0.639466 0.667313
vt 0.639466 0.826997
vt 0.612852 0.667313
vt 0.612852 0.826997
vt 0.580102 0.826997
vt 0.580102 0.667313
vt 0.606716 0.826997
vt 0.606716 0.667313
vt 0.711099 0.918188
vt 0.711099 0.667313
vt 0.737713 0.918188
vt 0.737713 0.667313
vt 0.704964 0.667313
vt 0.704964 0.918188
vt 0.678350 0.667313
vt 0.678350 0.918188
vt 0.341320 0.106128
vt 0.341320 0.150484
vt 0.048566 0.106128
vt 0.396766 0.001890
vt 0.048566 0.150484
vt 0.341320 0.048464
vt 0.341320 0.208148
vt 0.001992 0.252764
vt 0.001992 0.001890
vt 0.396766 0.663322
vt 0.048566 0.208148
vt 0.048566 0.048464
vt 0.341320 0.457064
vt 0.121755 0.252764
vt 0.341320 0.514727
vt 0.334667 0.252764
vt 0.214904 0.252764
vt 0.341320 0.559084
vt 0.334667 0.412448
vt 0.214904 0.412448
vt 0.048566 0.514727
vt 0.341320 0.616748
vt 0.121755 0.412448
vt 0.048566 0.559084
vt 0.001992 0.663322
vt 0.048566 0.457064
vt 0.001992 0.412448
vt 0.048566 0.616748
vt 0.895324 0.400655
vt 0.939681 0.400655
vt 0.895324 0.680102
vt 0.939681 0.680102
vt 0.844833 0.400655
vt 0.889189 0.400655
vt 0.844833 0.680102
vt 0.889189 0.680102
vt 0.838697 0.946760
vt 0.794341 0.946760
vt 0.838697 0.667313
vt 0.794341 0.667313
vt 0.498902 0.252764
vt 0.436803 0.001890
vt 0.618665 0.252764
vt 0.498902 0.412448
vt 0.831577 0.001890
vt 0.436803 0.663322
vt 0.711814 0.252764
vt 0.618665 0.412448
vt 0.831577 0.252764
vt 0.711814 0.412448
vt 0.831577 0.663322
vt 0.831577 0.412448
vt 0.788205 0.946760
vt 0.743849 0.946760
vt 0.788205 0.667313
vt 0.743849 0.667313
vn 0.000000 -0.707107 0.707107
vn 0.000000 -0.707107 0.707107
vn 0.000000 -0.707107 0.707107
vn 0.000000 -0.707107 0.707107
vn 0.000000 -0.707107 0.707107
vn 0.000000 -0.707107 0.707107
vn 0.707107 0.000000 0.707107
vn 0.707107 0.000000 0.707107
vn 0.707107 0.000000 0.707107
vn 0.707107 0.000000 0.707107
vn 0.707107 0.000000 0.707107
vn 0.707107 0.000000 0.707107
vn -0.707107 0.000000 0.707107
vn -0.707107 0.000000 0.707107
vn -0.707107 0.000000 0.707107
vn -0.707107 0.000000 0.707107
vn -0.707107 0.000000 0.707107
vn -0.707107 0.000000 0.707107
vn 0.000000 0.707107 0.707107
vn 0.000000 0.707107 0.707107
vn 0.000000 0.707107 0.707107
vn 0.000000 0.707107 0.707107
vn 0.000000 0.707107 0.707107
vn 0.000000 0.707107 0.707107
vn -1.000000 0.000000 0.000000
vn -1.000000 0.000000 0.000000
vn -1.000000 0.000000 0.000000
vn -1.000000 0.000000 0.000000
vn -1.000000 0.000000 0.000000
vn -1.000000 0.000000 0.000000
vn 0.000000 -1.000000 0.000000
vn 0.000000 -1.000000 0.000000
vn 0.000000 -1.000000 0.000000
vn 0.000000 -1.000000 0.000000
vn 0.000000 -1.000000 0.000000
vn 0.000000 -1.000000 0.000000
vn 0.000000 0.000000 1.000000
vn 0.000000 0.000000 1.000000
vn 0.000000 0.000000 1.000000
vn 0.000000 0.000000 1.000000
vn 0.000000 0.000000 1.000000
vn 0.000000 0.000000 1.000000
vn 0.000000 0.000000 1.000000
vn 0.000000 0.000000 1.000000
vn 0.000000 0.000000 1.000000
vn 0.000000 0.000000 1.000000
vn 0.000000 0.000000 1.000000
vn 0.000000 0.000000 1.000000
vn 0.000000 0.000000 1.000000
vn 0.000000 0.000000 1.000000
vn 0.000000 0.000000 1.000000
vn 0.000000 0.000000 1.000000
vn 0.000000 0.000000 1.000000
vn 0.000000 0.000000 1.000000
vn 0.000000 0.000000 1.000000
vn 0.000000 0.000000 1.000000
vn 0.000000 0.000000 1.000000
vn 0.000000 0.000000 1.000000
vn 0.000000 0.000000 1.000000
vn 0.000000 0.000000 1.000000
vn 0.000000 0.000000 1.000000
vn 0.000000 0.000000 1.000000
vn 0.000000 0.000000 1.000000
vn 0.000000 0.000000 1.000000
vn 0.000000 0.000000 1.000000
vn 0.000000 0.000000 1.000000
vn 0.000000 0.000000 1.000000
vn 0.000000 0.000000 1.000000
vn 0.000000 0.000000 1.000000
vn 0.000000 0.000000 1.000000
vn 0.000000 0.000000 1.000000
vn 0.000000 0.000000 1.000000
vn 0.000000 0.000000 1.000000
vn 0.000000 0.000000 1.000000
vn 0.000000 0.000000 1.000000
vn 0.000000 0.000000 1.000000
vn 0.000000 0.000000 1.000000
vn 0.000000 0.000000 1.000000
vn 0.000000 0.000000 1.000000
vn 0.000000 0.000000 1.000000
vn 0.000000 0.000000 1.000000
vn 0.000000 0.000000 1.000000
vn 0.000000 0.000000 1.000000
vn 0.000000 0.000000 1.000000
vn 0.000000 0.000000 1.000000
vn 0.000000 0.000000 1.000000
vn 0.000000 0.000000 1.000000
vn 0.000000 0.000000 1.000000
vn 0.000000 0.000000 1.000000
vn 0.000000 0.000000 1.000000
vn 0.000000 0.000000 1.000000
vn 0.000000 0.000000 1.000000
vn 0.000000 0.000000 1.000000
vn 0.000000 0.000000 1.000000
vn 0.000000 0.000000 1.000000
vn 0.000000 0.000000 1.000000
vn 0.000000 0.000000 1.000000
vn 0.000000 0.000000 1.000000
vn 0.000000 0.000000 1.000000
vn 0.000000 0.000000 1.000000
vn 0.000000 0.000000 1.000000
vn 0.000000 0.000000 1.000000
vn 0.000000 0.000000 1.000000
vn 0.000000 0.000000 1.000000
vn 0.000000 0.000000 1.000000
vn 0.000000 0.000000 1.000000
vn 0.000000 0.000000 1.000000
vn 0.000000 0.000000 1.000000
vn 0.000000 0.000000 1.000000
vn 0.000000 0.000000 1.000000
vn 0.000000 0.000000 1.000000
vn 0.000000 0.000000 1.000000
vn 0.000000 0.000000 1.000000
vn 0.000000 0.000000 1.000000
vn 0.000000 0.000000 1.000000
vn 0.000000 0.000000 1.000000
vn 0.000000 0.000000 1.000000
vn 0.000000 0.000000 1.000000
vn 0.000000 0.000000 1.000000
vn 0.000000 0.000000 1.000000
vn 0.000000 0.000000 1.000000
vn 0.000000 0.000000 1.000000
vn 0.000000 0.000000 1.000000
vn 0.000000 0.000000 1.000000
vn 0.000000 0.000000 1.000000
vn 0.000000 0.000000 1.000000
vn 0.000000 0.000000 1.000000
vn 0.000000 0.000000 1.000000
vn 0.000000 0.000000 1.000000
vn 0.000000 0.000000 1.000000
vn 0.000000 0.000000 1.000000
vn 0.000000 0.000000 1.000000
vn 0.000000 0.000000 1.000000
vn 0.000000 0.000000 1.000000
vn 0.000000 0.000000 1.000000
vn 0.000000 0.000000 1.000000
vn 0.000000 0.000000 1.000000
vn 0.000000 0.000000 1.000000
vn 0.000000 0.000000 1.000000
vn 0.000000 0.000000 1.000000
vn 0.000000 0.000000 1.000000
vn 0.000000 0.000000 1.000000
vn 0.000000 0.000000 1.000000
vn 0.000000 0.000000 1.000000
vn 0.707107 0.000000 0.707107
vn 0.707107 0.000000 0.707107
vn 0.707107 0.000000 0.707107
vn 0.707107 0.000000 0.707107
vn 0.707107 0.000000 0.707107
vn 0.707107 0.000000 0.707107
vn 0.000000 -0.707107 0.707107
vn 0.000000 -0.707107 0.707107
vn 0.000000 -0.707107 0.707107
vn 0.000000 -0.707107 0.707107
vn 0.000000 -0.707107 0.707107
vn 0.000000 -0.707107 0.707107
vn -0.707107 0.000000 0.707107
vn -0.707107 0.000000 0.707107
vn -0.707107 0.000000 0.707107
vn -0.707107 0.000000 0.707107
vn -0.707107 0.000000 0.707107
vn -0.707107 0.000000 0.707107
vn 0.000000 0.707107 0.707107
vn 0.000000 0.707107 0.707107
vn 0.000000 0.707107 0.707107
vn 0.000000 0.707107 0.707107
vn 0.000000 0.707107 0.707107
vn 0.000000 0.707107 0.707107
vn 0.000000 -1.000000 0.000000
vn 0.000000 -1.000000 0.000000
vn 0.000000 -1.000000 0.000000
vn 0.000000 -1.000000 0.000000
vn 0.000000 -1.000000 0.000000
vn 0.000000 -1.000000 0.000000
vn 1.000000 0.000000 0.000000
vn 1.000000 0.000000 0.000000
vn 1.000000 0.000000 0.000000
vn 1.000000 0.000000 0.000000
vn 1.000000 0.000000 0.000000
vn 1.000000 0.000000 0.000000
vn 1.000000 0.000000 0.000000
vn 1.000000 0.000000 0.000000
vn 1.000000 0.000000 0.000000
vn 1.000000 0.000000 0.000000
vn 1.000000 0.000000 0.000000
vn 1.000000 0.000000 0.000000
vn 0.000000 0.000000 1.000000
vn 0.000000 0.000000 1.000000
vn 0.000000 0.000000 1.000000
vn 0.000000 0.000000 1.000000
vn 0.000000 0.000000 1.000000
vn 0.000000 0.000000 1.000000
vn 0.000000 1.000000 0.000000
vn 0.000000 1.000000 0.000000
vn 0.000000 1.000000 0.000000
vn 0.000000 1.000000 0.000000
vn 0.000000 1.000000 0.000000
vn 0.000000 1.000000 0.000000
vn 0.000000 0.000000 1.000000
vn 0.000000 0.000000 1.000000
vn 0.000000 0.000000 1.000000
vn 0.000000 0.000000 1.000000
vn 0.000000 0.000000 1.000000
vn 0.000000 0.000000 1.000000
vn -1.000000 0.000000 0.000000
vn -1.000000 0.000000 0.000000
vn -1.000000 0.000000 0.000000
vn -1.000000 0.000000 0.000000
vn -1.000000 0.000000 0.000000
vn -1.000000 0.000000 0.000000
vn 0.000000 1.000000 0.000000
vn 0.000000 1.000000 0.000000
vn 0.000000 1.000000 0.000000
vn 0.000000 1.000000 0.000000
vn 0.000000 1.000000 0.000000
vn 0.000000 1.000000 0.000000
vn 0.000000 -0.707107 0.707107
vn 0.000000 -0.707107 0.707107
vn 0.000000 -0.707107 0.707107
vn 0.000000 -0.707107 0.707107
vn 0.000000 -0.707107 0.707107
vn 0.000000 -0.707107 0.707107
vn 0.707107 0.000000 0.707107
vn 0.707107 0.000000 0.707107
vn 0.707107 0.000000 0.707107
vn 0.707107 0.000000 0.707107
vn 0.707107 0.000000 0.707107
vn 0.707107 0.000000 0.707107
vn -0.707107 0.000000 0.707107
vn -0.707107 0.000000 0.707107
vn -0.707107 0.000000 0.707107
vn -0.707107 0.000000 0.707107
vn -0.707107 0.000000 0.707107
vn -0.707107 0.000000 0.707107
vn 0.000000 0.707107 0.707107
vn 0.000000 0.707107 0.707107
vn 0.000000 0.707107 0.707107
vn 0.000000 0.707107 0.707107
vn 0.000000 0.707107 0.707107
vn 0.000000 0.707107 0.707107
vn -1.000000 0.000000 0.000000
vn -1.000000 0.000000 0.000000
vn -1.000000 0.000000 0.000000
vn -1.000000 0.000000 0.000000
vn -1.000000 0.000000 0.000000
vn -1.000000 0.000000 0.000000
vn 0.000000 -1.000000 0.000000
vn 0.000000 -1.000000 0.000000
vn 0.000000 -1.000000 0.000000
vn 0.000000 -1.000000 0.000000
vn 0.000000 -1.000000 0.000000
vn 0.000000 -1.000000 0.000000
vn 0.000000 -0.707107 0.707107
vn 0.000000 -0.707107 0.707107
vn 0.000000 -0.707107 0.707107
vn 0.000000 -0.707107 0.707107
vn 0.000000 -0.707107 0.707107
vn 0.000000 -0.707107 0.707107
vn 0.707107 0.000000 0.707107
vn 0.707107 0.000000 0.707107
vn 0.707107 0.000000 0.707107
vn 0.707107 0.000000 0.707107
vn 0.707107 0.000000 0.707107
vn 0.707107 0.000000 0.707107
vn 0.000000 0.707107 0.707107
vn 0.000000 0.707107 0.707107
vn 0.000000 0.707107 0.707107
vn 0.000000 0.707107 0.707107
vn 0.000000 0.707107 0.707107
vn 0.000000 0.707107 0.707107
vn -0.707107 0.000000 0.707107
vn -0.707107 0.000000 0.707107
vn -0.707107 0.000000 0.707107
vn -0.707107 0.000000 0.707107
vn -0.707107 0.000000 0.707107
vn -0.707107 0.000000 0.707107
vn -1.000000 0.000000 0.000000
vn -1.000000 0.000000 0.000000
vn -1.000000 0.000000 0.000000
vn -1.000000 0.000000 0.000000
vn -1.000000 0.000000 0.000000
vn -1.000000 0.000000 0.000000
vn 0.000000 -1.000000 0.000000
vn 0.000000 -1.000000 0.000000
vn 0.000000 -1.000000 0.000000
vn 0.000000 -1.000000 0.000000
vn 0.000000 -1.000000 0.000000
vn 0.000000 -1.000000 0.000000
vn 0.000000 0.000000 1.000000
vn 0.000000 0.000000 1.000000
vn 0.000000 0.000000 1.000000
vn 0.000000 0.000000 1.000000
vn 0.000000 0.000000 1.000000
vn 0.000000 0.000000 1.000000
vn 1.000000 0.000000 0.000000
vn 1.000000 0.000000 0.000000
vn 1.000000 0.000000 0.000000
vn 1.000000 0.000000 0.000000
vn 1.000000 0.000000 0.000000
vn 1.000000 0.000000 0.000000
vn 0.000000 1.000000 0.000000
vn 0.000000 1.000000 0.000000
vn 0.000000 1.000000 0.000000
vn 0.000000 1.000000 0.000000
vn 0.000000 1.000000 0.000000
vn 0.000000 1.000000 0.000000
vn 0.000000 1.000000 0.000000
vn 0.000000 1.000000 0.000000
vn 0.000000 1.000000 0.000000
vn 0.000000 1.000000 0.000000
vn 0.000000 1.000000 0.000000
vn 0.000000 1.000000 0.000000
vn -1.000000 0.000000 0.000000
vn -1.000000 0.000000 0.000000
vn -1.000000 0.000000 0.000000
vn -1.000000 0.000000 0.000000
vn -1.000000 0.000000 0.000000
vn -1.000000 0.000000 0.000000
vn 0.000000 0.000000 -1.000000
vn 0.000000 0.000000 -1.000000
vn 0.000000 0.000000 -1.000000
vn 0.000000 0.000000 -1.000000
vn 0.000000 0.000000 -1.000000
vn 0.000000 0.000000 -1.000000
vn 0.000000 0.000000 -1.000000
vn 0.000000 0.000000 -1.000000
vn 0.000000 0.000000 -1.000000
vn 0.000000 0.000000 -1.000000
vn 0.000000 0.000000 -1.000000
vn 0.000000 0.000000 -1.000000
vn 0.000000 0.000000 -1.000000
vn 0.000000 0.000000 -1.000000
vn 0.000000 0.000000 -1.000000
vn 0.000000 0.000000 -1.000000
vn 0.000000 0.000000 -1.000000
vn 0.000000 0.000000 -1.000000
vn 0.000000 0.000000 -1.000000
vn 0.000000 0.000000 -1.000000
vn 0.000000 0.000000 -1.000000
vn 0.000000 0.000000 -1.000000
vn 0.000000 0.000000 -1.000000
vn 0.000000 0.000000 -1.000000
vn 0.000000 0.000000 -1.000000
vn 0.000000 0.000000 -1.000000
vn 0.000000 0.000000 -1.000000
vn 0.000000 0.000000 -1.000000
vn 0.000000 0.000000 -1.000000
vn 0.000000 0.000000 -1.000000
vn 0.000000 0.000000 -1.000000
vn 0.000000 0.000000 -1.000000
vn 0.000000 0.000000 -1.000000
vn 0.000000 0.000000 -1.000000
vn 0.000000 0.000000 -1.000000
vn 0.000000 0.000000 -1.000000
vn 0.000000 0.000000 1.000000
vn 0.000000 0.000000 1.000000
vn 0.000000 0.000000 1.000000
vn 0.000000 0.000000 1.000000
vn 0.000000 0.000000 1.000000
vn 0.000000 0.000000 1.000000
vn 1.000000 0.000000 0.000000
vn 1.000000 0.000000 0.000000
vn 1.000000 0.000000 0.000000
vn 1.000000 0.000000 0.000000
vn 1.000000 0.000000 0.000000
vn 1.000000 0.000000 0.000000
vn 0.000000 1.000000 0.000000
vn 0.000000 1.000000 0.000000
vn 0.000000 1.000000 0.000000
vn 0.000000 1.000000 0.000000
vn 0.000000 1.000000 0.000000
vn 0.000000 1.000000 0.000000
vn -1.000000 0.000000 0.000000
vn -1.000000 0.000000 0.000000
vn -1.000000 0.000000 0.000000
vn -1.000000 0.000000 0.000000
vn -1.000000 0.000000 0.000000
vn -1.000000 0.000000 0.000000
vn 0.000000 -1.000000 0.000000
vn 0.000000 -1.000000 0.000000
vn 0.000000 -1.000000 0.000000
vn 0.000000 -1.000000 0.000000
vn 0.000000 -1.000000 0.000000
vn 0.000000 -1.000000 0.000000
vn 1.000000 0.000000 0.000000
vn 1.000000 0.000000 0.000000
vn 1.000000 0.000000 0.000000
vn 1.000000 0.000000 0.000000
vn 1.000000 0.000000 0.000000
vn 1.000000 0.000000 0.000000
vn 1.000000 0.000000 0.000000
vn 1.000000 0.000000 0.000000
vn 1.000000 0.000000 0.000000
vn 1.000000 0.000000 0.000000
vn 1.000000 0.000000 0.000000
vn 1.000000 0.000000 0.000000
vn 0.000000 1.000000 0.000000
vn 0.000000 1.000000 0.000000
vn 0.000000 1.000000 0.000000
vn 0.000000 1.000000 0.000000
vn 0.000000 1.000000 0.000000
vn 0.000000 1.000000 0.000000
vn -1.000000 0.000000 0.000000
vn -1.000000 0.000000 0.000000
vn -1.000000 0.000000 0.000000
vn -1.000000 0.000000 0.000000
vn -1.000000 0.000000 0.000000
vn -1.000000 0.000000 0.000000
vn 0.000000 -1.000000 0.000000
vn 0.000000 -1.000000 0.000000
vn 0.000000 -1.000000 0.000000
vn 0.000000 -1.000000 0.000000
vn 0.000000 -1.000000 0.000000
vn 0.000000 -1.000000 0.000000
vn 0.000000 -1.000000 0.000000
vn 0.000000 -1.000000 0.000000
vn 0.000000 -1.000000 0.000000
vn 0.000000 -1.000000 0.000000
vn 0.000000 -1.000000 0.000000
vn 0.000000 -1.000000 0.000000
vn 1.000000 0.000000 0.000000
vn 1.000000 0.000000 0.000000
vn 1.000000 0.000000 0.000000
vn 1.000000 0.000000 0.000000
vn 1.000000 0.000000 0.000000
vn 1.000000 0.000000 0.000000
vn 0.000000 -1.000000 0.000000
vn 0.000000 -1.000000 0.000000
vn 0.000000 -1.000000 0.000000
vn 0.000000 -1.000000 0.000000
vn 0.000000 -1.000000 0.000000
vn 0.000000 -1.000000 0.000000
s off
g Wall_Sheet_3:Solid1
usemtl initialShadingGroup
f 56/78/1 46/77/2 54/75/3
f 54/75/4 46/77/5 50/73/6
f 48/13/7 50/15/8 45/17/9
f 45/17/10 50/15/11 46/18/12
f 56/6/13 54/1/14 55/5/15
f 55/5/16 54/1/17 52/3/18
f 45/90/19 55/89/20 48/87/21
f 48/87/22 55/89/23 52/85/24
f 54/1/25 53/2/26 52/3/27
f 52/3/28 53/2/29 51/4/30
f 50/73/31 49/74/32 54/75/33
f 54/75/34 49/74/35 53/76/36
f 58/145/37 56/146/38 57/147/39
f 57/147/40 56/146/41 55/149/42
f 57/147/43 55/149/44 38/152/45
f 38/152/46 55/149/47 45/155/48
f 38/152/49 45/155/50 40/158/51
f 40/158/52 45/155/53 42/161/54
f 40/158/55 42/161/56 34/164/57
f 56/146/58 58/145/59 72/148/60
f 72/148/61 58/145/62 68/150/63
f 72/148/64 68/150/65 70/153/66
f 70/153/67 68/150/68 67/156/69
f 70/153/70 67/156/71 57/147/72
f 16/162/73 4/154/74 6/166/75
f 6/166/76 4/154/77 2/169/78
f 6/166/79 2/169/80 5/172/81
f 5/172/82 2/169/83 15/168/84
f 15/168/85 2/169/86 30/171/87
f 15/168/88 30/171/89 17/165/90
f 17/165/91 30/171/92 27/170/93
f 27/170/94 30/171/95 32/167/96
f 27/170/97 32/167/98 34/164/99
f 34/164/100 32/167/101 40/158/102
f 15/168/103 17/165/104 16/162/105
f 16/162/106 17/165/107 18/159/108
f 16/162/109 18/159/110 4/154/111
f 4/154/112 18/159/113 28/157/114
f 4/154/115 28/157/116 46/151/117
f 46/151/118 28/157/119 44/160/120
f 46/151/121 44/160/122 42/161/123
f 56/146/124 72/148/125 46/151/126
f 46/151/127 72/148/128 4/154/129
f 38/152/130 70/153/131 57/147/132
f 27/170/133 34/164/134 28/157/135
f 28/157/136 34/164/137 36/163/138
f 28/157/139 36/163/140 44/160/141
f 45/155/142 46/151/143 42/161/144
f 58/12/145 57/11/146 62/9/147
f 62/9/148 57/11/149 60/7/150
f 62/79/151 66/81/152 58/83/153
f 58/83/154 66/81/155 68/84/156
f 68/24/157 66/19/158 67/23/159
f 67/23/160 66/19/161 64/21/162
f 57/96/163 67/95/164 60/93/165
f 60/93/166 67/95/167 64/91/168
f 62/79/169 61/80/170 66/81/171
f 66/81/172 61/80/173 65/82/174
f 60/7/175 59/8/176 62/9/177
f 62/9/178 59/8/179 61/10/180
f 48/13/181 47/14/182 50/15/183
f 50/15/184 47/14/185 49/16/186
f 47/173/187 51/174/188 49/175/189
f 49/175/190 51/174/191 53/176/192
f 52/85/193 51/86/194 48/87/195
f 48/87/196 51/86/197 47/88/198
f 59/177/199 63/178/200 61/179/201
f 61/179/202 63/178/203 65/180/204
f 66/19/205 65/20/206 64/21/207
f 64/21/208 65/20/209 63/22/210
f 64/91/211 63/92/212 60/93/213
f 60/93/214 63/92/215 59/94/216
f 28/102/217 18/101/218 26/99/219
f 26/99/220 18/101/221 22/97/222
f 20/37/223 22/39/224 17/41/225
f 17/41/226 22/39/227 18/42/228
f 28/30/229 26/25/230 27/29/231
f 27/29/232 26/25/233 24/27/234
f 17/114/235 27/113/236 20/111/237
f 20/111/238 27/113/239 24/109/240
f 26/25/241 25/26/242 24/27/243
f 24/27/244 25/26/245 23/28/246
f 22/97/247 21/98/248 26/99/249
f 26/99/250 21/98/251 25/100/252
f 16/108/253 6/107/254 14/105/255
f 14/105/256 6/107/257 10/103/258
f 6/52/259 5/51/260 10/49/261
f 10/49/262 5/51/263 8/47/264
f 12/119/265 8/121/266 15/123/267
f 15/123/268 8/121/269 5/124/270
f 16/36/271 14/31/272 15/35/273
f 15/35/274 14/31/275 12/33/276
f 14/31/277 13/32/278 12/33/279
f 12/33/280 13/32/281 11/34/282
f 10/103/283 9/104/284 14/105/285
f 14/105/286 9/104/287 13/106/288
f 25/181/289 21/182/290 23/183/291
f 23/183/292 21/182/293 19/184/294
f 20/37/295 19/38/296 22/39/297
f 22/39/298 19/38/299 21/40/300
f 24/109/301 23/110/302 20/111/303
f 20/111/304 23/110/305 19/112/306
f 3/115/307 4/116/308 71/117/309
f 71/117/310 4/116/311 72/118/312
f 3/43/313 1/44/314 4/45/315
f 4/45/316 1/44/317 2/46/318
f 43/185/319 71/186/320 41/187/321
f 41/187/322 71/186/323 69/189/324
f 41/187/325 69/189/326 39/191/327
f 39/191/328 69/189/329 37/193/330
f 43/185/331 35/188/332 71/186/333
f 71/186/334 35/188/335 3/190/336
f 3/190/337 35/188/338 33/192/339
f 3/190/340 33/192/341 1/195/342
f 1/195/343 33/192/344 31/194/345
f 1/195/346 31/194/347 29/196/348
f 33/192/349 41/187/350 31/194/351
f 31/194/352 41/187/353 39/191/354
f 13/197/355 9/198/356 11/199/357
f 11/199/358 9/198/359 7/200/360
f 8/47/361 7/48/362 10/49/363
f 10/49/364 7/48/365 9/50/366
f 12/119/367 11/120/368 8/121/369
f 8/121/370 11/120/371 7/122/372
f 39/53/373 37/54/374 40/55/375
f 40/55/376 37/54/377 38/56/378
f 31/125/379 39/126/380 32/127/381
f 32/127/382 39/126/383 40/128/384
f 29/57/385 31/58/386 30/59/387
f 30/59/388 31/58/389 32/60/390
f 33/61/391 35/62/392 34/63/393
f 34/63/394 35/62/395 36/64/396
f 41/129/397 33/130/398 42/131/399
f 42/131/400 33/130/401 34/132/402
f 43/65/403 41/66/404 44/67/405
f 44/67/406 41/66/407 42/68/408
f 35/133/409 43/134/410 36/135/411
f 36/135/412 43/134/413 44/136/414
f 37/137/415 69/138/416 38/139/417
f 38/139/418 69/138/419 70/140/420
f 72/69/421 70/70/422 71/71/423
f 71/71/424 70/70/425 69/72/426
f 30/141/427 2/142/428 29/143/429
f 29/143/430 2/142/431 1/144/432
